<svg width="41" height="41" viewBox="0 0 41 41" fill="none" xmlns="http://www.w3.org/2000/svg">
<path fill-rule="evenodd" clip-rule="evenodd" d="M1.38729 1.27429C1.6858 1.01497 2.05448 0.849963 2.44673 0.800127C2.83899 0.750292 3.23721 0.817865 3.59108 0.994306L39.5876 18.9936C39.9203 19.1595 40.2003 19.4148 40.396 19.731C40.5916 20.0472 40.6953 20.4117 40.6953 20.7835C40.6953 21.1554 40.5916 21.5199 40.396 21.8361C40.2003 22.1522 39.9203 22.4076 39.5876 22.5735L3.59108 40.5728C3.23724 40.7498 2.83884 40.818 2.44628 40.7685C2.05372 40.719 1.68466 40.5543 1.38578 40.295C1.08691 40.0357 0.871656 39.6936 0.767267 39.3119C0.662879 38.9302 0.674045 38.5262 0.799352 38.1509L5.92285 22.7835H16.6958C17.2262 22.7835 17.7348 22.5728 18.1099 22.1977C18.4849 21.8226 18.6956 21.314 18.6956 20.7835C18.6956 20.2531 18.4849 19.7444 18.1099 19.3694C17.7348 18.9943 17.2262 18.7836 16.6958 18.7836H5.92285L0.797352 3.41621C0.67269 3.04105 0.662008 2.63735 0.766653 2.25612C0.871299 1.87489 1.08858 1.53323 1.38729 1.27429Z" fill="#009685"/>
</svg>
